# xmcd CD database file
#
# Track frame offsets:
#	150
#	14764
#	30050
#	44247
#	60195
#	67919
#	80380
#	97439
#	107659
#	123086
#	137453
#	152524
#	166678
#	183008
#	198020
#	210121
#	224986
#	237392
#	249853
#	258756
#	269436
#	279233
#	292119
#	306958
#	320546
#	336900
#
# Disc length: 4644 seconds
#
# Revision: 0
# Processed by: cddbd v1.5.1PL2 Copyright (c) Steve Scherf et al.
# Submitted via: CDex 1.51
#
DISCID=6912221a
DTITLE=Vários - 1/2 Século Moda de Viola
DYEAR=2003
DGENRE=Country
TTITLE0=Raul Torres e Florêncio - Cabocla Tereza
TTITLE1=Luizinho e Limeira - Menino da Porteira
TTITLE2=Belmonte e Amaraí - Saudade da Minha Terra
TTITLE3=Zilo e Zalo - Milagre do Ladrão
TTITLE4=Tibagi e Miltinho - Passarinho do Peito Amarelo
TTITLE5=Cascatinha e Inhana - Flor do Cafezal
TTITLE6=Pedro Bento e Zé da Estrada - Mágoa de Boiadeiro
TTITLE7=Léo Canhoto e Robertinho - Apartamento 37
TTITLE8=Duo Ciriema -  Mais uma Lição
TTITLE9=Palmeira e Biá - Disco Voador
TTITLE10=Tonico e Tinoco - Viola Cabocla
TTITLE11=Mário Zan - Chalana
TTITLE12=Léo Canhoto e Robertinho - Meu Velho Pai
TTITLE13=Zilo e Zalo - Caminheiro
TTITLE14=Brazão e Brazãozinho - João de Barro
TTITLE15=Zé do Rancho e Zé do Pinho - No Colo da Noite
TTITLE16=Duo Ciriema - Colcha de Retalhos
TTITLE17=Rolando Boldrin - Marvada Pinga
TTITLE18=Tavares e Zé Negrão - Rio de Lágrimas
TTITLE19=Belmonte e Amaraí - Pombinha Passageira
TTITLE20=Tonico e Tinoco - Canta Moçada
TTITLE21=Belmonte e Amaraí - Lágrimas da Alma
TTITLE22=Pena Branca e Xavantinho - Vide-Vida Marvada
TTITLE23=Sérgio Reis - Casinha Branca
TTITLE24=Renato Teixeira - Amanheceu, Peguei a Viola
TTITLE25=Almir Sater - Toque de Viola
EXTD=YEAR: 2003
EXTT0=
EXTT1=
EXTT2=
EXTT3=
EXTT4=
EXTT5=
EXTT6=
EXTT7=
EXTT8=
EXTT9=
EXTT10=
EXTT11=
EXTT12=
EXTT13=
EXTT14=
EXTT15=
EXTT16=
EXTT17=
EXTT18=
EXTT19=
EXTT20=
EXTT21=
EXTT22=
EXTT23=
EXTT24=
EXTT25=
PLAYORDER=
